<?xml version="1.0" standalone="no"?> <!DOCTYPE svg PUBLIC "-//W3C//DTD SVG 1.0//EN" "http://www.w3.org/TR/2001/REC-SVG-20010904/DTD/svg10.dtd" > <svg xmlns="http://www.w3.org/2000/svg" width="100%" height="100%">
<defs >
<font id="metricregular" horiz-adv-x="972" ><font-face
    font-family="Metric Regular"
    units-per-em="2048"
    panose-1="2 11 5 3 3 2 2 6 2 3"
    ascent="1331"
    descent="-717"
    alphabetic="0" />
<missing-glyph horiz-adv-x="1245" />
<glyph unicode=" " glyph-name="space" horiz-adv-x="452" />
<glyph unicode="!" glyph-name="exclam" horiz-adv-x="415" d="M98 100Q98 148 130 180T207 213Q253 213 285 181T317 100Q317 53 285 22T207 -10Q162 -10 130 21T98 100ZM152 395L117 1257H299L262 395H152Z" />
<glyph unicode="&quot;" glyph-name="quotedbl" horiz-adv-x="542" d="M82 809V1257H217V809H82ZM326 809V1257H461V809H326Z" />
<glyph unicode="#" glyph-name="numbersign" horiz-adv-x="1179" d="M1047 481L1022 360H809L723 0H584L670 360H381L295 0H158L244 360H47L74 481H272L342 776H133L158 897H371L457 1257H596L508 897H797L885 1257H1022L936 897H1130L1106 776H907L838 481H1047ZM479
776L410 481H698L768 776H479Z" />
<glyph unicode="$" glyph-name="dollar" horiz-adv-x="937" d="M397 -182V18Q209 34 86 127V295Q245 158 459 158Q575 158 643 204T711 340Q711 413 668 454T524 539L350 606Q290 630 247 654T164 716T103 807T82 928Q82 1061 169 1141T397 1237V1423H539V1237Q690
1219 805 1143V979Q650 1102 465 1102Q361 1102 296 1058T231 930Q231 859 274 820T410 748L598 674Q735 619 797 541T860 342Q860 211 772 126T539 23V-182H397Z" />
<glyph unicode="%" glyph-name="percent" horiz-adv-x="1314" d="M188 1067T188 1004T232 897T340 852T448 896T494 1004Q494 1066 449 1111T340 1157T233 1112ZM203 0L987 1257H1114L330 0H203ZM1247 368T1247 254T1168 61T975 -18Q861 -18 782 61T702 254T781
447T975 526Q1088 526 1167 447ZM612 1004Q612 890 533 811T340 731T147 810T68 1004Q68 1117 147 1196T340 1276T533 1197T612 1004ZM1126 191T1126 254T1082 361T975 406T867 362T821 254T866 146T975 100T1082 145Z" />
<glyph unicode="&amp;" glyph-name="ampersand" horiz-adv-x="1204" d="M553 1145Q468 1145 413 1097T358 963Q358 930 367 901T401 837T440 787T494 727L846 352Q899 473 905 631H1049Q1041 413 940 250L1176 0H973L848 131Q699 -18 487 -18Q308 -18 194 90T80
367Q80 478 143 570T309 711Q259 772 234 829T209 958Q209 1103 306 1189T553 1276Q705 1276 823 1196V1036Q690 1145 553 1145ZM487 111Q655 111 762 223L395 614Q321 587 274 519T227 367Q227 254 299 183T487 111Z" />
<glyph unicode="&apos;" glyph-name="quotesingle" horiz-adv-x="303" d="M82 809V1257H221V809H82Z" />
<glyph unicode="(" glyph-name="parenleft" horiz-adv-x="657" d="M61 580Q61 860 209 1062T610 1331V1167Q439 1124 327 967T215 580T327 193T610 -8V-172Q358 -106 210 96T61 580Z" />
<glyph unicode=")" glyph-name="parenright" horiz-adv-x="657" d="M596 580Q596 299 448 97T47 -172V-8Q218 35 330 193T442 580T330 966T47 1167V1331Q299 1265 447 1063T596 580Z" />
<glyph unicode="*" glyph-name="asterisk" horiz-adv-x="679" d="M248 1036L63 1145L109 1223L295 1116V1329H385V1116L571 1223L616 1145L430 1036L616 930L571 852L385 958V743H295V958L109 852L63 930L248 1036Z" />
<glyph unicode="+" glyph-name="plus" horiz-adv-x="1105" d="M489 1012H616V672H956V545H616V205H489V545H150V672H489V1012Z" />
<glyph unicode="," glyph-name="comma" horiz-adv-x="350" d="M27 -219L156 -2Q115 4 91 30T66 100Q66 147 98 178T176 209Q224 209 254 178T285 90T240 -39L131 -219H27Z" />
<glyph unicode="-" glyph-name="hyphen" horiz-adv-x="657" d="M82 463V606H575V463H82Z" />
<glyph unicode="." glyph-name="period" horiz-adv-x="350" d="M66 100Q66 148 98 180T176 213Q221 213 253 181T285 100Q285 53 253 22T176 -10Q130 -10 98 21T66 100Z" />
<glyph unicode="/" glyph-name="slash" horiz-adv-x="681" d="M10 -172L518 1331H672L164 -172H10Z" />
<glyph unicode="0" glyph-name="zero" horiz-adv-x="1101" d="M551 -18Q341 -18 212 161T82 629T211 1096T551 1276Q689 1276 796 1195T961 966T1020 629T962 292T796 64T551 -18ZM551 1130Q451 1130 380 1066T275 889T240 629T274 369T380 192T551 127Q699 127
780 265T862 629Q862 777 827 889T721 1065T551 1130Z" />
<glyph unicode="1" glyph-name="one" horiz-adv-x="673" d="M520 1260V0H362V1065L51 905V1069L424 1260H520Z" />
<glyph unicode="2" glyph-name="two" horiz-adv-x="909" d="M326 143H844V0H41V8L426 481Q473 538 489 558T542 626T592 699T625 765T652 841T659 915Q659 1013 599 1073T428 1133Q239 1133 70 958V1122Q136 1191 234 1233T440 1276Q614 1276 714 1181T815 922Q815
857 797 795T736 664T659 549T557 420L326 143Z" />
<glyph unicode="3" glyph-name="three" horiz-adv-x="894" d="M68 1114V1257H811V1251L496 752Q639 731 730 632T821 383Q821 203 699 93T401 -18Q195 -18 59 86V256Q199 121 391 121Q517 121 595 189T674 381Q674 517 565 588T285 653V659L573 1114H68Z" />
<glyph unicode="4" glyph-name="four" horiz-adv-x="1040" d="M643 1257L260 420H633V723H782V420H991V285H782V0H633V285H41V293L485 1257H643Z" />
<glyph unicode="5" glyph-name="five" horiz-adv-x="913" d="M401 788Q592 788 718 680T844 387Q844 200 717 91T393 -18Q199 -18 70 82V256Q208 121 387 121Q518 121 606 193T694 387Q694 507 605 579T385 651Q306 651 251 637T119 592V1257H778V1114H252V768Q305
788 401 788Z" />
<glyph unicode="6" glyph-name="six" horiz-adv-x="987" d="M494 -18Q310 -18 189 104T68 410Q68 565 178 758L465 1257H631L367 799Q426 836 504 836Q684 836 802 714T920 410Q920 227 798 105T494 -18ZM772 410Q772 531 693 614T494 698T295 615T215 410Q215
287 294 204T494 121Q613 121 692 204T772 410Z" />
<glyph unicode="7" glyph-name="seven" horiz-adv-x="909" d="M885 1251L313 0H152L664 1114H37V1257H885V1251Z" />
<glyph unicode="8" glyph-name="eight" horiz-adv-x="997" d="M498 113Q618 113 695 180T772 354Q772 460 695 527T498 594Q379 594 302 527T225 354Q225 247 302 180T498 113ZM498 729Q597 729 663 787T729 936Q729 1029 664 1087T498 1145Q400 1145 334 1087T268
936Q268 845 334 787T498 729ZM498 -18Q314 -18 192 82T70 342Q70 462 138 547T315 662Q226 693 171 768T115 944Q115 1093 224 1184T498 1276Q663 1276 773 1185T883 944Q883 844 827 769T682 662Q789 633 858 547T928 342Q928 182 806 82T498 -18Z" />
<glyph unicode="9" glyph-name="nine" horiz-adv-x="987" d="M311 1276T494 1276T798 1154T920 848Q920 694 809 500L522 0H356L621 459Q563 422 483 422Q303 422 186 544T68 848Q68 1031 189 1153ZM215 848Q215 726 295 643T494 559T692 642T772 848Q772 971
693 1054T494 1137Q374 1137 295 1054T215 848Z" />
<glyph unicode=":" glyph-name="colon" horiz-adv-x="350" d="M66 100Q66 148 98 180T176 213Q221 213 253 181T285 100Q285 53 253 22T176 -10Q130 -10 98 21T66 100ZM66 743Q66 791 98 823T176 856Q221 856 253 824T285 743Q285 696 253 665T176 633Q130 633
98 664T66 743Z" />
<glyph unicode=";" glyph-name="semicolon" horiz-adv-x="350" d="M27 -219L156 -2Q115 4 91 30T66 100Q66 147 98 178T176 209Q224 209 254 178T285 90T240 -39L131 -219H27ZM66 743Q66 791 98 823T176 856Q221 856 253 824T285 743Q285 696 253 665T176 633Q130
633 98 664T66 743Z" />
<glyph unicode="&lt;" glyph-name="less" horiz-adv-x="866" d="M127 524V684L733 993V848L246 604L733 360V215L127 524Z" />
<glyph unicode="=" glyph-name="equal" horiz-adv-x="1128" d="M162 408V526H969V408H162ZM162 690V813H969V690H162Z" />
<glyph unicode="&gt;" glyph-name="greater" horiz-adv-x="866" d="M741 684V524L133 215V360L621 604L133 848V993L741 684Z" />
<glyph unicode="?" glyph-name="question" horiz-adv-x="847" d="M459 641Q473 657 503 689T552 742T591 794T622 857T633 924Q633 1021 575 1074T406 1128Q213 1128 43 946V1114Q110 1185 208 1230T414 1276Q589 1276 690 1183T791 926Q791 901 788 878T775 830T758
788T734 746T709 708T677 668T646 634T612 597T580 563Q531 511 513 473T492 395H342Q346 470 371 521T459 641ZM301 100Q301 148 333 180T410 213Q456 213 488 181T520 100Q520 53 488 22T410 -10Q365 -10 333 21T301 100Z" />
<glyph unicode="@" glyph-name="at" horiz-adv-x="1585" d="M1147 780L1059 283Q1048 223 1069 198T1141 172Q1253 172 1325 274T1397 555Q1397 775 1242 909T842 1044Q653 1044 505 959T275 723T193 385Q193 259 231 157T333 -10T482 -120T658 -182T844 -201Q1082
-201 1288 -106V-223Q1205 -263 1088 -289T844 -315Q722 -315 610 -290T398 -210T225 -74T109 124T66 385Q66 544 122 686T279 932T525 1098T842 1159Q990 1159 1117 1113T1333 987T1470 795T1520 555Q1520 434 1487 338T1396 182T1269 92T1120 61Q1047 61 992
92T915 180Q884 129 826 96T707 63Q582 63 509 149T436 367Q436 479 482 577T615 737T809 799Q874 799 923 772T995 705L1010 780H1147ZM922 309L969 563Q951 611 911 641T817 672Q712 672 645 581T578 373Q578 290 620 240T735 190Q843 190 922 309Z" />
<glyph unicode="A" glyph-name="A" horiz-adv-x="1220" d="M535 1257H686L1178 0H1014L868 379H350L207 0H43L535 1257ZM608 1057L403 520H813L608 1057Z" />
<glyph unicode="B" glyph-name="B" horiz-adv-x="1101" d="M795 651Q896 625 959 543T1022 354Q1022 184 911 92T604 0H150V1257H563Q760 1257 869 1171T979 924Q979 818 927 747T795 651ZM307 711H563Q823 711 823 915Q823 1116 563 1116H307V711ZM307 575V141H604Q729
141 796 199T864 358Q864 460 797 517T604 575H307Z" />
<glyph unicode="C" glyph-name="C" horiz-adv-x="1105" d="M76 339T76 629T243 1097T666 1276Q873 1276 1004 1167V997Q860 1130 668 1130T357 993T238 629T357 265T668 127Q855 127 1004 260V90Q872 -18 666 -18Q410 -18 243 160Z" />
<glyph unicode="D" glyph-name="D" horiz-adv-x="1239" d="M311 145H551Q763 145 883 275T1004 629T884 983T551 1114H311V145ZM150 0V1257H553Q830 1257 996 1087T1163 629T997 171T553 0H150Z" />
<glyph unicode="E" glyph-name="E" horiz-adv-x="1054" d="M150 1257H950V1114H309V717H891V573H309V145H950V0H150V1257Z" />
<glyph unicode="F" glyph-name="F" horiz-adv-x="993" d="M311 0H150V1257H918V1114H311V690H881V547H311V0Z" />
<glyph unicode="G" glyph-name="G" horiz-adv-x="1214" d="M668 125Q839 125 956 221V518H680V653H1106V162Q942 -18 664 -18Q400 -18 238 160T76 629Q76 918 247 1097T682 1276Q902 1276 1044 1163V991Q891 1130 682 1130Q484 1130 361 993T238 629Q238 401 355
263T668 125Z" />
<glyph unicode="H" glyph-name="H" horiz-adv-x="1333" d="M1022 1257H1184V0H1022V573H311V0H150V1257H311V719H1022V1257Z" />
<glyph unicode="I" glyph-name="I" horiz-adv-x="460" d="M311 1257V0H150V1257H311Z" />
<glyph unicode="J" glyph-name="J" horiz-adv-x="800" d="M59 53V219Q123 173 179 151T301 129Q414 129 464 198T514 424V1257H676V418Q676 194 583 88T305 -18Q169 -18 59 53Z" />
<glyph unicode="K" glyph-name="K" horiz-adv-x="1132" d="M311 1257V698L879 1257H1081L463 655L1100 0H891L311 592V0H150V1257H311Z" />
<glyph unicode="L" glyph-name="L" horiz-adv-x="1032" d="M150 0V1257H311V145H952V0H150Z" />
<glyph unicode="M" glyph-name="M" horiz-adv-x="1480" d="M748 281H739L307 967V0H150V1257H299L745 535L1190 1257H1331V0H1174V967L748 281Z" />
<glyph unicode="N" glyph-name="N" horiz-adv-x="1275" d="M1126 1257V0H1008L305 999V0H150V1257H303L973 301V1257H1126Z" />
<glyph unicode="O" glyph-name="O" horiz-adv-x="1288" d="M1212 629Q1212 345 1052 164T643 -18Q480 -18 351 64T149 294T76 629Q76 914 235 1095T643 1276Q766 1276 871 1228T1052 1096T1169 891T1212 629ZM1051 407T1051 629T938 990T643 1130Q462 1130 350
991T238 629T350 267T643 127Q825 127 938 267Z" />
<glyph unicode="P" glyph-name="P" horiz-adv-x="1099" d="M614 504H311V0H150V1257H614Q809 1257 921 1160T1034 881Q1034 700 921 602T614 504ZM874 881Q874 990 806 1053T612 1116H311V647H612Q738 647 806 710T874 881Z" />
<glyph unicode="Q" glyph-name="Q" horiz-adv-x="1286" d="M1024 -74L922 55Q795 -18 643 -18Q480 -18 351 64T149 294T76 629Q76 914 235 1095T643 1276Q766 1276 871 1228T1052 1096T1169 891T1212 629Q1212 479 1164 354T1030 141L1135 10L1024 -74ZM1051 629Q1051
851 938 990T643 1130Q462 1130 350 991T238 629T350 267T643 127Q752 127 831 170L725 305L836 387L938 256Q1051 391 1051 629Z" />
<glyph unicode="R" glyph-name="R" horiz-adv-x="1130" d="M535 532H311V0H150V1257H610Q804 1257 916 1163T1028 893Q1028 740 944 651T707 539L1079 0H895L535 532ZM311 1116V670H606Q730 670 799 729T868 893T799 1057T606 1116H311Z" />
<glyph unicode="S" glyph-name="S" horiz-adv-x="985" d="M84 98V272Q256 125 479 125Q603 125 675 177T748 324Q748 402 702 445T547 535L362 606Q313 625 276 644T200 693T136 757T96 840T80 946Q80 1051 136 1127T282 1239T483 1276Q696 1276 844 1174V1004Q677
1135 485 1135Q376 1135 307 1087T238 948Q238 874 283 832T426 752L625 674Q771 618 837 537T903 326Q903 168 785 75T479 -18Q356 -18 254 13T84 98Z" />
<glyph unicode="T" glyph-name="T" horiz-adv-x="1161" d="M61 1114V1257H1100V1114H662V0H500V1114H61Z" />
<glyph unicode="U" glyph-name="U" horiz-adv-x="1243" d="M621 -18Q399 -18 264 115T129 500V1257H289V518Q289 322 376 224T621 125Q777 125 864 223T952 518V1257H1114V498Q1114 248 979 115T621 -18Z" />
<glyph unicode="V" glyph-name="V" horiz-adv-x="1208" d="M680 0H528L43 1257H213L606 213L1001 1257H1165L680 0Z" />
<glyph unicode="W" glyph-name="W" horiz-adv-x="1570" d="M723 1257H852L1118 258L1376 1257H1532L1198 0H1051L786 981L518 0H373L39 1257H199L457 258L723 1257Z" />
<glyph unicode="X" glyph-name="X" horiz-adv-x="1140" d="M1090 1257L662 643L1108 0H924L567 512L213 0H35L479 639L51 1257H236L571 768L911 1257H1090Z" />
<glyph unicode="Y" glyph-name="Y" horiz-adv-x="1140" d="M573 664L936 1257H1108L649 518V0H489V518L35 1257H211L573 664Z" />
<glyph unicode="Z" glyph-name="Z" horiz-adv-x="1083" d="M1008 145V0H61V8L760 1114H92V1257H1014V1249L319 145H1008Z" />
<glyph unicode="[" glyph-name="bracketleft" horiz-adv-x="641" d="M297 1192V-33H594V-172H150V1331H594V1192H297Z" />
<glyph unicode="\" glyph-name="backslash" horiz-adv-x="681" d="M164 1331L672 -172H518L10 1331H164Z" />
<glyph unicode="]" glyph-name="bracketright" horiz-adv-x="641" d="M344 -33V1192H47V1331H492V-172H47V-33H344Z" />
<glyph unicode="^" glyph-name="asciicircum" horiz-adv-x="731" d="M291 1257H442L696 860H537L367 1122L197 860H35L291 1257Z" />
<glyph unicode="_" glyph-name="underscore" horiz-adv-x="751" d="M41 -225V-86H711V-225H41Z" />
<glyph unicode="`" glyph-name="grave" horiz-adv-x="1024" d="M674 1057H532L350 1331H510L674 1057Z" />
<glyph unicode="a" glyph-name="a" horiz-adv-x="917" d="M643 485V604Q643 688 585 737T426 786Q291 786 168 707V852Q215 885 292 906T451 928Q612 928 702 845T793 616V0H643V68Q613 36 547 10T408 -16Q264 -16 167 63T70 274Q70 400 169 479T416 559Q482 559
546 537T643 485ZM643 225V319Q625 369 565 400T432 432Q342 432 279 392T215 274Q215 196 278 155T432 113Q505 113 564 144T643 225Z" />
<glyph unicode="b" glyph-name="b" horiz-adv-x="1028" d="M291 106V0H135V1331H291V803Q327 855 396 891T547 928Q644 928 722 890T851 787T929 637T956 455Q956 324 910 218T770 47T547 -18Q466 -18 397 18T291 106ZM291 639V270Q326 200 388 161T524 121Q652
121 726 214T801 455Q801 602 727 695T524 788Q451 788 389 749T291 639Z" />
<glyph unicode="c" glyph-name="c" horiz-adv-x="829" d="M72 455Q72 668 196 798T510 928Q666 928 754 852V696Q659 791 520 791Q395 791 311 700T227 455T311 211T520 119Q660 119 754 213V57Q667 -18 510 -18Q321 -18 197 111T72 455Z" />
<glyph unicode="d" glyph-name="d" horiz-adv-x="1028" d="M737 0V106Q701 54 632 18T481 -18Q352 -18 258 47T118 218T72 455Q72 552 99 637T176 787T305 890T481 928Q562 928 631 892T737 803V1331H893V0H737ZM737 270V639Q702 709 640 748T504 788Q376 788
302 695T227 455Q227 307 301 214T504 121Q577 121 639 160T737 270Z" />
<glyph unicode="e" glyph-name="e" horiz-adv-x="921" d="M850 428H223Q227 276 312 197T528 117Q606 117 666 137T786 203V61Q685 -18 510 -18Q312 -18 192 107T72 446T184 793T477 928Q658 928 754 808T850 483V428ZM479 797Q385 797 319 734T231 549H700Q695
657 640 727T479 797Z" />
<glyph unicode="f" glyph-name="f" horiz-adv-x="591" d="M592 1329V1190Q553 1214 496 1214Q427 1214 387 1171T346 1049V909H551V778H346V0H195V778H41V909H195V1061Q195 1195 272 1272T473 1350Q540 1350 592 1329Z" />
<glyph unicode="g" glyph-name="g" horiz-adv-x="1021" d="M731 61V121Q695 69 626 34T477 -2Q380 -2 302 36T175 139T99 287T72 463T98 639T174 787T302 890T477 928Q557 928 626 893T731 807V909H887V72Q887 -42 849 -130T745 -268T604 -344T442 -369T280 -347T150
-287V-117Q270 -229 442 -229Q569 -229 650 -154T731 61ZM731 279V649Q695 714 634 752T500 791Q373 791 300 700T227 463Q227 318 300 228T500 137Q573 137 634 175T731 279Z" />
<glyph unicode="h" glyph-name="h" horiz-adv-x="1001" d="M137 0V1331H291V795Q334 852 405 890T559 928Q712 928 795 838T879 596V0H723V571Q723 670 673 728T522 786Q443 786 380 739T291 616V0H137Z" />
<glyph unicode="i" glyph-name="i" horiz-adv-x="428" d="M291 909V0H137V909H291ZM313 1225T313 1184T284 1114T213 1085Q173 1085 144 1114T115 1184Q115 1225 144 1253T213 1282Q254 1282 283 1254Z" />
<glyph unicode="j" glyph-name="j" horiz-adv-x="423" d="M291 909V-104Q291 -231 223 -299T27 -367Q-18 -367 -39 -358V-227Q-3 -233 14 -233Q76 -233 106 -201T137 -94V909H291ZM313 1225T313 1184T284 1114T213 1085Q173 1085 144 1114T115 1184Q115 1225 144
1253T213 1282Q254 1282 283 1254Z" />
<glyph unicode="k" glyph-name="k" horiz-adv-x="911" d="M446 494L901 0H711L291 451V0H137V1331H291V526L694 909H893L446 494Z" />
<glyph unicode="l" glyph-name="l" horiz-adv-x="428" d="M291 1331V0H137V1331H291Z" />
<glyph unicode="m" glyph-name="m" horiz-adv-x="1468" d="M782 782Q885 928 1059 928Q1195 928 1270 840T1346 602V0H1190V578Q1190 676 1147 732T1018 788Q949 788 894 744T817 627V0H664V578Q664 676 621 732T492 788Q422 788 367 744T291 627V0H137V909H291V803Q326
859 390 893T537 928Q620 928 684 889T782 782Z" />
<glyph unicode="n" glyph-name="n" horiz-adv-x="1001" d="M137 0V909H291V795Q334 852 405 890T559 928Q712 928 795 838T879 596V0H723V571Q723 670 673 728T522 786Q443 786 380 739T291 616V0H137Z" />
<glyph unicode="o" glyph-name="o" horiz-adv-x="978" d="M907 455Q907 245 791 114T489 -18T188 113T72 455Q72 664 187 796T489 928T791 796T907 455ZM752 304T752 455T681 699T489 793T298 700T227 455T297 211T489 117T681 210Z" />
<glyph unicode="p" glyph-name="p" horiz-adv-x="1028" d="M291 106V-348H137V909H291V803Q329 856 398 892T547 928Q645 928 723 890T852 786T929 636T956 455T930 275T853 125T724 21T547 -18Q467 -18 398 18T291 106ZM291 639V270Q326 200 388 161T524 121Q652
121 726 214T801 455Q801 602 727 695T524 788Q451 788 389 749T291 639Z" />
<glyph unicode="q" glyph-name="q" horiz-adv-x="1028" d="M737 -348V106Q699 54 630 18T481 -18Q383 -18 305 20T176 124T99 274T72 455T98 635T175 785T304 889T481 928Q561 928 630 892T737 803V909H891V-348H737ZM737 270V639Q702 709 640 748T504 788Q376
788 302 695T227 455Q227 307 301 214T504 121Q577 121 639 160T737 270Z" />
<glyph unicode="r" glyph-name="r" horiz-adv-x="657" d="M604 913V756Q568 780 502 780Q429 780 372 735T291 610V0H137V909H291V791Q321 851 382 889T516 928Q577 928 604 913Z" />
<glyph unicode="s" glyph-name="s" horiz-adv-x="804" d="M84 72V236Q216 113 383 113Q464 113 517 144T571 240Q571 288 538 318T440 371L315 414Q202 451 144 509T86 672Q86 789 177 858T408 928Q562 928 678 848V688Q549 797 408 797Q333 797 285 766T236 678Q236
627 267 601T371 549L510 502Q723 429 723 246Q723 124 627 53T383 -18Q295 -18 216 6T84 72Z" />
<glyph unicode="t" glyph-name="t" horiz-adv-x="651" d="M391 778V0H238V778H47V909H238V1149H391V909H602V778H391Z" />
<glyph unicode="u" glyph-name="u" horiz-adv-x="997" d="M862 909V0H707V115Q665 57 595 20T442 -18Q290 -18 208 71T125 313V909H281V338Q281 239 330 181T479 123Q558 123 620 170T707 293V909H862Z" />
<glyph unicode="v" glyph-name="v" horiz-adv-x="931" d="M541 0H389L37 909H203L469 195L733 909H895L541 0Z" />
<glyph unicode="w" glyph-name="w" horiz-adv-x="1288" d="M715 909L901 215L1102 909H1251L983 0H834L645 690L455 0H305L37 909H190L391 215L578 909H715Z" />
<glyph unicode="x" glyph-name="x" horiz-adv-x="919" d="M864 909L545 471L883 0H709L457 354L203 0H37L373 465L55 909H231L461 584L696 909H864Z" />
<glyph unicode="y" glyph-name="y" horiz-adv-x="931" d="M406 -348H254L391 -6L37 909H203L471 193L735 909H895L406 -348Z" />
<glyph unicode="z" glyph-name="z" horiz-adv-x="868" d="M788 131V0H63V8L553 778H86V909H791V901L303 131H788Z" />
<glyph unicode="{" glyph-name="braceleft" horiz-adv-x="694" d="M358 422V43Q358 6 377 -13T432 -33H647V-172H434Q334 -172 271 -108T207 57V432Q207 508 135 508H41V651H135Q207 651 207 727V1102Q207 1203 270 1267T434 1331H647V1192H432Q397 1192 378 1173T358
1116V737Q358 631 270 580Q358 528 358 422Z" />
<glyph unicode="|" glyph-name="bar" horiz-adv-x="448" d="M150 -172V1331H299V-172H150Z" />
<glyph unicode="}" glyph-name="braceright" horiz-adv-x="694" d="M336 43V422Q336 527 424 580Q336 632 336 737V1116Q336 1153 317 1172T262 1192H47V1331H260Q360 1331 423 1267T487 1102V727Q487 651 559 651H653V508H559Q487 508 487 432V57Q487 -44 424
-108T260 -172H47V-33H262Q297 -33 316 -14T336 43Z" />
<glyph unicode="~" glyph-name="asciitilde" horiz-adv-x="856" d="M645 686H774Q774 562 722 492T575 422Q533 422 491 443T422 489T361 536T299 557Q256 557 234 525T211 430H82Q82 553 134 622T281 692Q323 692 364 671T433 625T494 578T557 557Q598 557 621
591T645 686Z" />
</font>
</defs>
</svg>
